<?xml version="1.0" encoding="UTF-8" standalone="no"?>
<svg
   xmlns:dc="http://purl.org/dc/elements/1.1/"
   xmlns:cc="http://creativecommons.org/ns#"
   xmlns:rdf="http://www.w3.org/1999/02/22-rdf-syntax-ns#"
   xmlns:svg="http://www.w3.org/2000/svg"
   xmlns="http://www.w3.org/2000/svg"
   xmlns:sodipodi="http://sodipodi.sourceforge.net/DTD/sodipodi-0.dtd"
   xmlns:inkscape="http://www.inkscape.org/namespaces/inkscape"
   height="24"
   width="24"
   id="svg3057"
   version="1.1"
   inkscape:version="0.92.1 r15371"
   sodipodi:docname="NOFAInsert.svg"
   inkscape:export-filename="/home/svoboond/.qgis2/python/plugins/NOFAInsert-master/docs/source/images/nofainsert.png"
   inkscape:export-xdpi="256"
   inkscape:export-ydpi="256">
  <metadata
     id="metadata3089">
    <rdf:RDF>
      <cc:Work
         rdf:about="">
        <dc:format>image/svg+xml</dc:format>
        <dc:type
           rdf:resource="http://purl.org/dc/dcmitype/StillImage" />
        <dc:title />
      </cc:Work>
    </rdf:RDF>
  </metadata>
  <defs
     id="defs3087" />
  <sodipodi:namedview
     pagecolor="#ffffff"
     bordercolor="#666666"
     borderopacity="1"
     objecttolerance="10"
     gridtolerance="10"
     guidetolerance="10"
     inkscape:pageopacity="0"
     inkscape:pageshadow="2"
     inkscape:window-width="1920"
     inkscape:window-height="1040"
     id="namedview3085"
     showgrid="false"
     inkscape:zoom="8.4446351"
     inkscape:cx="-14.550075"
     inkscape:cy="18.479173"
     inkscape:window-x="0"
     inkscape:window-y="31"
     inkscape:window-maximized="1"
     inkscape:current-layer="svg3057" />
  <linearGradient
     gradientUnits="userSpaceOnUse"
     x1="23"
     x2="23"
     y1="1043.3622"
     y2="1049.3622"
     id="linearGradient3059">
    <stop
       offset="0"
       stop-color="#555753"
       id="stop3061" />
    <stop
       offset="1"
       stop-color="#555753"
       stop-opacity="0"
       id="stop3063" />
  </linearGradient>
  <g
     id="g4761"
     transform="matrix(0,-0.7246504,0.85017957,0,13.544409,-11.058835)">
    <g
       id="g4765"
       transform="matrix(1.3350176,0,0,1.1582736,8.0159774,1.4909051)">
      <path
         style="fill:none;stroke:#000000;stroke-width:1px;stroke-linecap:butt;stroke-linejoin:miter;stroke-opacity:1"
         d="m -29.171351,2.6717482 c -5.365809,-8.0749383 -1.663994,-16.0121692 -1.663994,-16.0121692 0,0 -1.503788,1.273355 -2.775099,1.908947 -1.295261,0.647566 -3.440699,1.5366041 -3.440699,1.5366041 0,0 11.839059,1.5424279 16.632331,9.03596795 1.769141,2.76577945 0.180153,8.56025505 0.180153,8.56025505 0,0 -6.301063,-1.0693008 -8.932692,-5.0296049 z"
         id="path4027"
         inkscape:connector-curvature="0"
         sodipodi:nodetypes="scscscs" />
      <path
         sodipodi:type="arc"
         style="fill:#ff0000;fill-rule:evenodd;stroke:#000000;stroke-width:1px;stroke-linecap:butt;stroke-linejoin:miter;stroke-opacity:1"
         id="path4031"
         sodipodi:cx="-35.416092"
         sodipodi:cy="-2.5998526"
         sodipodi:rx="0.65492064"
         sodipodi:ry="0.40302807"
         d="m -34.761171,-2.5998526 a 0.65492064,0.40302807 0 0 1 -0.654921,0.4030281 0.65492064,0.40302807 0 0 1 -0.654921,-0.4030281 0.65492064,0.40302807 0 0 1 0.654921,-0.403028 0.65492064,0.40302807 0 0 1 0.654921,0.403028 z"
         transform="translate(13.297336,5.3408887)" />
    </g>
  </g>
  <g
     transform="matrix(0.75607143,0,0,0.75607143,-0.35163906,-0.36342886)"
     id="g4710">
    <rect
       style="fill:#5a8c5a"
       height="13"
       rx="2.6149371"
       ry="2.6149368"
       width="13"
       x="19"
       y="19"
       id="rect4712" />
    <path
       inkscape:connector-curvature="0"
       d="m 21.6,25.499999 7.8,0"
       style="fill:#ffffff;fill-rule:evenodd;stroke:#ffffff;stroke-width:2.5999999;stroke-linecap:round;stroke-linejoin:round;overflow:visible"
       id="path4714" />
    <path
       inkscape:connector-curvature="0"
       d="M 25.5,29.399999 25.5,21.6"
       style="fill:#ffffff;fill-rule:evenodd;stroke:#ffffff;stroke-width:2.5999999;stroke-linecap:round;stroke-linejoin:round;overflow:visible"
       id="path4716" />
    <path
       style="opacity:0.3;fill:#fcffff;fill-rule:evenodd"
       inkscape:connector-curvature="0"
       d="m 20.3,25.499999 h 10.4 c 0,0 0,0 0,-2.6 C 30.7,20.3 30.05,20.3 25.5,20.3 c -4.55,0 -5.2,0 -5.2,2.599999 0,2.6 0,2.6 0,2.6 z"
       id="path4718" />
  </g>
</svg>
